<svg version="1.1" id="Layer_1" xmlns="http://www.w3.org/2000/svg" xmlns:xlink="http://www.w3.org/1999/xlink" x="0px" y="0px"
	 viewBox="0 0 500 500" style="enable-background:new 0 0 500 500;" xml:space="preserve">
<style type="text/css">
	.st0{fill:#FFFFFF;}
</style>
<path class="st0" d="M369.97,259.25c0.29-56.26,0.09-169.78,0.09-169.78l-52.42-0.81c0,0,0.1,79.34-0.03,119.01
	c-0.02,6.33-0.3,12.78-1.49,18.98c-7.36,38.45-36.13,66.38-74.8,72.78c-10.84,1.8-21.71,1.99-31.89-3
	c-17.59-8.62-26.45-22.91-26.47-42.49c-0.05-54.51-0.03-164.54-0.03-164.54l-52.44-0.28l0.05,322.22l52.53,0.01
	c0,0-0.14-42.91-0.14-64.37c0-1.46,0-2.92,0-4.12c56.07,21.82,103.42,5.71,146.34-31.71c0.37,0.6,0.86,1.31,1.28,2.07
	c7.81,14.12,18.5,25.61,31.77,34.74c-0.22,0.81,32.78-39.19,32.66-39.31C378.85,297.21,369.87,278.86,369.97,259.25z M169.75,190.82
	l-7.02,7.02l-5.98-5.98l-5.98,5.98l-7.02-7.02l5.98-5.98l-5.98-5.98l7.02-7.02l5.98,5.98l5.98-5.98l7.02,7.02l-5.98,5.98
	L169.75,190.82z M169.75,157.01l-7.02,7.02l-5.98-5.98l-5.98,5.98l-7.02-7.02l5.98-5.98l-5.98-5.98l7.02-7.02l5.98,5.98l5.98-5.98
	l7.02,7.02l-5.98,5.98L169.75,157.01z M169.75,121.3l-7.02,7.02l-5.98-5.98l-5.98,5.98l-7.02-7.02l5.98-5.98l-5.98-5.98l7.02-7.02
	l5.98,5.98l5.98-5.98l7.02,7.02l-5.98,5.98L169.75,121.3z"/>
</svg>
