<?xml version="1.0" encoding="utf-8"?>
<!-- Generator: Adobe Illustrator 27.2.0, SVG Export Plug-In . SVG Version: 6.00 Build 0)  -->
<svg version="1.1" id="Layer_1" xmlns="http://www.w3.org/2000/svg" xmlns:xlink="http://www.w3.org/1999/xlink" x="0px" y="0px"
	 viewBox="0 0 186.02 383.22" style="enable-background:new 0 0 186.02 383.22;" xml:space="preserve">
<g>
	<path d="M90.01,383.22c-3.54-2.46-7.53-4.46-10.54-7.44c-24.81-24.64-49.45-49.45-74.11-74.23c-6.56-6.59-7.14-15.22-1.54-21.43
		c5.97-6.62,15.63-6.76,22.26-0.14c16.18,16.14,32.29,32.34,48.44,48.52c0.93,0.94,1.92,1.82,3.5,3.31c0-2.17,0-3.61,0-5.05
		c0-103.29,0-206.59,0-309.88c0-8.41,3.71-14.07,10.59-16.2c9.21-2.85,18.68,3.6,19.36,13.22c0.1,1.37,0.04,2.74,0.04,4.12
		c0,102.8,0,205.59,0,308.39c0,1.49,0,2.99,0,5.42c1.51-1.43,2.54-2.35,3.51-3.33c16.14-16.17,32.3-32.34,48.41-48.54
		c4.37-4.4,9.58-5.89,15.43-4.18c5.59,1.63,9.12,5.59,10.32,11.3c1.18,5.59-0.76,10.25-4.74,14.24
		c-18.09,18.11-36.14,36.26-54.21,54.4c-6.7,6.72-13.25,13.6-20.18,20.08c-3.11,2.91-7,4.99-10.54,7.45
		C94.01,383.22,92.01,383.22,90.01,383.22z"/>
</g>
</svg>
