<?xml version="1.0" encoding="utf-8"?>
<!-- Generator: Adobe Illustrator 27.2.0, SVG Export Plug-In . SVG Version: 6.00 Build 0)  -->
<svg version="1.1" id="Layer_1" xmlns="http://www.w3.org/2000/svg" xmlns:xlink="http://www.w3.org/1999/xlink" x="0px" y="0px"
	 viewBox="0 0 383.22 186.02" style="enable-background:new 0 0 383.22 186.02;" xml:space="preserve">
<path d="M383.22,96.01c-2.46,3.54-4.46,7.53-7.44,10.54c-24.64,24.81-49.45,49.45-74.23,74.11c-6.59,6.56-15.22,7.14-21.43,1.54
	c-6.62-5.97-6.76-15.63-0.14-22.26c16.14-16.18,32.34-32.29,48.52-48.44c0.94-0.93,1.82-1.92,3.31-3.5c-2.17,0-3.61,0-5.05,0
	c-103.29,0-206.59,0-309.88,0c-8.41,0-14.07-3.71-16.2-10.59c-2.85-9.21,3.6-18.68,13.22-19.36c1.37-0.1,2.74-0.04,4.12-0.04
	c102.8,0,205.59,0,308.39,0c1.49,0,2.99,0,5.42,0c-1.43-1.51-2.35-2.54-3.33-3.51c-16.17-16.14-32.34-32.3-48.54-48.41
	c-4.4-4.37-5.89-9.58-4.18-15.43c1.63-5.59,5.59-9.12,11.3-10.32c5.59-1.18,10.25,0.76,14.24,4.74
	c18.11,18.09,36.26,36.14,54.4,54.21c6.72,6.7,13.6,13.25,20.08,20.18c2.91,3.11,4.99,7,7.45,10.54
	C383.22,92.01,383.22,94.01,383.22,96.01z"/>
</svg>
