<?xml version="1.0" encoding="utf-8"?>
<!-- Generator: Adobe Illustrator 27.2.0, SVG Export Plug-In . SVG Version: 6.00 Build 0)  -->
<svg version="1.1" id="Layer_1" xmlns="http://www.w3.org/2000/svg" xmlns:xlink="http://www.w3.org/1999/xlink" x="0px" y="0px"
	 viewBox="0 0 357.72 391.39" style="enable-background:new 0 0 357.72 391.39;" xml:space="preserve">
<g>
	<path d="M216.34,391.39c-5.17-1.21-10.41-2.17-15.48-3.69c-12.59-3.78-23.16-10.93-32.4-20.18
		c-39.27-39.29-78.42-78.71-117.93-117.77c-13.15-13-13.01-33.03,6.06-44.19c17.57-10.28,34.75-8.95,51.15,2.76
		c8.29,5.92,16.33,12.19,24.49,18.29c1.09,0.82,2.22,1.57,4.01,2.83c0-2.13,0-3.58,0-5.04c0-45.48-0.01-90.97,0.01-136.45
		c0-7.08,1.21-13.85,4.83-20.15c7.13-12.4,22.56-19.22,36.71-15.95c14.43,3.33,25.75,15.74,26.2,30.07
		c0.56,17.95,0.29,35.92,0.38,53.88c0.01,1.36,0,2.72,0,4.73c9.73-4.9,19.21-5.91,28.91-2.26c9.71,3.65,16.25,10.61,20.31,20.42
		c9.56-5.67,19.48-7.24,29.85-3.71c10.24,3.49,17.16,10.61,21.22,20.82c7.17-4.43,14.67-6.13,22.84-5.39
		c14.81,1.34,28.31,14.55,29.63,29.4c0.35,3.92,0.55,7.87,0.55,11.81c0.05,28.03,0.06,56.06,0.01,84.09
		c-0.04,21.39-5.83,40.97-18.9,58.1c-16.09,21.08-37.35,33.33-63.65,36.84c-1.25,0.17-2.48,0.48-3.72,0.73
		C253.05,391.39,234.7,391.39,216.34,391.39z M153.4,164.73c0,26.25,0.01,52.5-0.02,78.75c0,1.77-0.06,3.6-0.47,5.3
		c-1.22,5.07-6.59,7.73-11.37,5.66c-1.38-0.6-2.63-1.54-3.85-2.45c-13.36-10-26.68-20.06-40.07-30.02
		c-11.18-8.31-24.57-8.33-34.61-0.19c-6.07,4.91-6.35,9.84-0.75,15.44c39.64,39.66,79.31,79.29,118.95,118.96
		c12.25,12.26,27.06,18.23,44.32,18.27c12.36,0.02,24.76,0.52,37.08-0.17c8.68-0.49,17.68-1.44,25.84-4.23
		c32.62-11.19,51.95-39.06,52.13-74.03c0.15-29.82,0.05-59.64,0-89.46c0-2.4-0.18-4.88-0.81-7.17c-2.19-7.96-9.74-12.89-18.09-12.08
		c-7.97,0.78-14.53,7.61-15.02,15.8c-0.2,3.3,0.1,6.64-0.2,9.93c-0.45,4.95-3.99,8.07-8.59,7.99c-4.59-0.09-7.99-3.39-8.16-8.37
		c-0.2-5.73-0.03-11.47-0.1-17.2c-0.05-3.69,0.07-7.42-0.47-11.05c-1.27-8.59-8.55-14.41-17.2-14.15
		c-9.38,0.29-16.27,7.53-16.46,17.57c-0.15,8.15,0.08,16.31-0.1,24.47c-0.14,6.19-5.32,10.04-10.88,8.41
		c-3.81-1.12-5.98-4.49-6-9.59c-0.03-13.25-0.02-26.51-0.01-39.76c0.01-6.42-2.23-11.77-7.71-15.34c-5.43-3.54-11.24-3.9-17.05-0.93
		c-6.61,3.37-9.31,9.14-9.34,16.3c-0.05,11.47,0,22.94-0.03,34.41c-0.01,2.67,0.05,5.37-0.25,8.01c-0.47,4.13-3.61,6.94-7.65,7.19
		c-4.16,0.25-7.52-2.02-8.54-6.09c-0.46-1.82-0.57-3.77-0.57-5.66c-0.03-40.27-0.02-80.54-0.03-120.81c0-1.66,0.03-3.32-0.1-4.97
		c-0.81-10.17-10.9-17.41-20.76-14.94c-8.38,2.1-13.04,8.5-13.05,18.23C153.38,112.73,153.4,138.73,153.4,164.73z"/>
</g>
</svg>
