<?xml version="1.0" encoding="utf-8"?>
<!-- Generator: Adobe Illustrator 27.2.0, SVG Export Plug-In . SVG Version: 6.00 Build 0)  -->
<svg version="1.1" id="Layer_1" xmlns="http://www.w3.org/2000/svg" xmlns:xlink="http://www.w3.org/1999/xlink" x="0px" y="0px"
	 viewBox="0 0 340.71 84.89" style="enable-background:new 0 0 340.71 84.89;" xml:space="preserve">
<g>
	<path d="M29.4,33.93c2.45,0,3.84,0,5.22,0c24.09,0,48.18-0.01,72.26,0.02c1.9,0,3.84,0.06,5.7,0.41c3.72,0.68,6.48,4.09,6.61,7.85
		c0.12,3.73-2.42,7.3-6.13,8.2c-1.83,0.45-3.77,0.59-5.66,0.59c-24.34,0.04-48.69,0.02-73.03,0.02c-1.35,0-2.7,0-4.06,0
		c-0.16,0.29-0.32,0.58-0.48,0.87c5.49,5.39,11,10.77,16.46,16.2c1.25,1.25,2.49,2.58,3.43,4.06c2.21,3.47,1.6,7.74-1.3,10.45
		c-2.79,2.61-6.94,3.01-10.23,0.89c-1.06-0.68-2.05-1.52-2.94-2.41C24.58,70.5,13.92,59.89,3.29,49.25
		c-4.33-4.34-4.4-9.12-0.13-13.4C13.95,25.02,24.79,14.23,35.63,3.44c2.67-2.66,5.7-4.3,9.62-2.97c3.19,1.08,5.06,3.34,5.68,6.59
		c0.67,3.51-1.04,6.14-3.38,8.48c-5.04,5.05-10.1,10.09-15.14,15.14C31.63,31.46,30.91,32.3,29.4,33.93z"/>
	<path d="M311.25,51.03c-16.9,0-32.81,0-48.73,0c-10.19,0-20.38,0.02-30.58-0.01c-3.55-0.01-6.83-0.69-8.97-3.98
		c-3.26-5.04-0.54-11.63,5.37-12.72c1.74-0.32,3.54-0.36,5.32-0.37c24.08-0.02,48.16-0.02,72.24-0.02c1.45,0,2.9,0,4.35,0
		c0.12-0.32,0.24-0.64,0.36-0.96c-5.27-5.26-10.56-10.5-15.81-15.79c-1.34-1.35-2.7-2.74-3.75-4.3c-2.18-3.24-1.73-7.42,0.88-10.22
		c2.69-2.89,6.97-3.49,10.45-1.32c1.28,0.8,2.45,1.83,3.52,2.9c10.48,10.42,20.93,20.86,31.38,31.31c4.51,4.51,4.6,9.2,0.17,13.64
		c-10.71,10.73-21.47,21.41-32.18,32.13c-2.92,2.92-6.21,4.55-10.32,2.94c-5.85-2.29-7.12-9.22-2.45-14.16
		c5.08-5.37,10.42-10.48,15.63-15.71C309,53.52,309.8,52.59,311.25,51.03z"/>
</g>
</svg>
