<?xml version="1.0" standalone="no"?>
<!DOCTYPE svg PUBLIC "-//W3C//DTD SVG 20010904//EN"
 "http://www.w3.org/TR/2001/REC-SVG-20010904/DTD/svg10.dtd">
<svg version="1.0" xmlns="http://www.w3.org/2000/svg"
 width="700.000000pt" height="700.000000pt" viewBox="0 0 700.000000 700.000000"
 preserveAspectRatio="xMidYMid meet">
<metadata>
Created by potrace 1.14, written by Peter Selinger 2001-2017
</metadata>
<g transform="translate(0.000000,700.000000) scale(0.100000,-0.100000)"
fill="#000000" stroke="none">
<path d="M4450 5741 c-1 -9 -2 -423 -4 -921 -4 -951 -4 -950 -51 -1115 -64
-220 -158 -379 -320 -540 -96 -96 -105 -104 -175 -151 -139 -95 -358 -183
-494 -200 -23 -3 -48 -7 -56 -10 -8 -3 -52 -8 -97 -11 -86 -5 -185 7 -263 33
-134 45 -299 185 -357 304 -72 147 -66 46 -70 1345 -1 644 -3 1194 -3 1223 l0
52 -367 0 -368 0 0 -2254 0 -2254 368 0 c272 0 367 3 368 11 1 7 1 222 1 479
l-1 466 72 -24 c228 -78 395 -107 612 -108 155 -1 233 7 354 33 268 59 497
164 771 355 56 39 179 136 214 168 11 10 22 18 25 18 3 0 25 -33 48 -73 51
-87 151 -213 224 -283 54 -50 182 -154 191 -154 3 0 34 35 69 77 35 43 66 80
69 83 3 3 35 41 70 85 36 44 67 82 70 85 10 10 65 76 100 120 19 24 44 55 56
69 l21 24 -92 91 c-133 132 -216 287 -244 461 -6 37 -10 540 -10 1288 0 676
-1 1230 -3 1232 -2 2 -166 5 -365 8 -332 5 -363 4 -363 -12z m-2297 -216 c19
-19 37 -35 42 -35 4 0 23 16 42 35 19 19 38 35 42 35 9 0 91 -84 91 -93 0 -4
-16 -21 -35 -38 -19 -17 -35 -36 -35 -43 0 -6 16 -26 35 -43 19 -18 35 -36 35
-41 0 -4 -20 -28 -45 -52 l-45 -44 -27 25 c-16 13 -32 30 -36 37 -13 20 -29
14 -69 -25 l-38 -37 -37 35 c-40 36 -53 51 -53 59 0 3 16 23 35 43 40 42 42
51 18 69 -10 7 -27 23 -37 36 l-20 23 44 44 c24 25 48 45 52 45 4 0 22 -16 41
-35z m42 -535 c4 0 23 16 42 35 19 19 37 35 41 35 4 0 28 -20 52 -45 l44 -45
-41 -42 -41 -43 43 -42 42 -41 -46 -46 c-26 -25 -50 -46 -55 -46 -4 0 -24 18
-44 40 -19 22 -38 37 -42 33 -3 -5 -22 -24 -43 -43 l-37 -34 -49 48 -50 49 40
37 c21 20 39 40 39 44 0 4 -16 24 -35 43 -19 19 -35 38 -35 41 0 4 21 28 46
53 l47 48 37 -40 c20 -21 40 -39 45 -39z m-40 -440 l39 -40 43 42 42 41 46
-44 c25 -24 45 -48 45 -53 0 -5 -16 -23 -35 -42 -19 -18 -35 -37 -35 -41 0 -5
16 -24 35 -43 19 -19 35 -37 35 -40 0 -4 -21 -28 -47 -54 l-48 -46 -25 27
c-52 58 -54 58 -98 14 l-39 -40 -47 45 c-25 25 -46 48 -46 52 0 3 17 23 37 44
l37 38 -25 27 c-13 15 -32 35 -41 43 -16 14 -14 18 30 63 25 26 49 47 52 47 3
0 24 -18 45 -40z"/>
</g>
</svg>
